<svg xmlns="http://www.w3.org/2000/svg" viewBox="0 0 512 512">
  <rect width="512" height="512" rx="100" fill="#7b2cbf"/>
  <path d="M366.3 169.3L208.6 327c-25 25-65.5 25-90.5 0s-25-65.5 0-90.5l157.7-157.7c12.5-12.5 32.8-12.5 45.3 0s12.5 32.8 0 45.3L163.4 281.8c-12.5 12.5-12.5 32.8 0 45.3s32.8 12.5 45.3 0L366.3 169.3c37.5-37.5 37.5-98.3 0-135.8s-98.3-37.5-135.8 0L72.8 191.2c-50 50-50 131 0 181s131 50 181 0l157.7-157.7c12.5-12.5 12.5-32.8 0-45.3s-32.8-12.5-45.3 0z" fill="white" transform="translate(60, 60) scale(0.8)"/>
</svg>
